<?xml version="1.0" encoding="utf-8"?>
<!-- Generator: Adobe Illustrator 23.0.1, SVG Export Plug-In . SVG Version: 6.00 Build 0)  -->
<svg version="1.1" id="图层_1" xmlns="http://www.w3.org/2000/svg" xmlns:xlink="http://www.w3.org/1999/xlink" x="0px" y="0px"
	 viewBox="0 0 20 20" style="enable-background:new 0 0 20 20;" xml:space="preserve">
<style type="text/css">
	.st0{fill:#CCCCCC;}
</style>
<path class="st0" d="M14.6,17.3C14.6,17.3,14.6,17.3,14.6,17.3l-9.5,0c-0.6,0-1-0.3-1.2-0.5c-0.4-0.5-0.4-1.2-0.4-1.3V9.8h1v5.7l0,0
	c0,0.1,0,0.4,0.1,0.6c0,0,0.1,0.1,0.4,0.1h9.5l0,0c0,0,0.4,0,0.6-0.2c0.1-0.1,0.2-0.3,0.2-0.6V9.8h1v5.7c0,0.7-0.3,1.1-0.5,1.4
	C15.4,17.3,14.8,17.3,14.6,17.3z M4.1,10.3H2.5c-0.2,0-0.4-0.1-0.5-0.3C2,9.8,2,9.6,2.2,9.4l7.4-6.6c0.2-0.2,0.5-0.2,0.7,0l7.5,6.6
	C18,9.5,18,9.7,18,9.9c-0.1,0.2-0.3,0.3-0.5,0.3l-1.7,0c0,0,0,0,0,0c-0.3,0-0.5-0.2-0.5-0.5c0-0.3,0.2-0.5,0.5-0.5l0.4,0L10,3.9
	L3.8,9.3h0.2c0.3,0,0.5,0.2,0.5,0.5S4.3,10.3,4.1,10.3z M8.3,16.8c-0.2,0-0.4-0.2-0.4-0.4v-3.6c0-0.1,0-0.4,0.3-0.7
	c0.4-0.4,1-0.6,1.8-0.6c0.8,0,1.4,0.2,1.8,0.6c0.3,0.3,0.3,0.6,0.3,0.7v3.5c0,0.2-0.2,0.4-0.4,0.4s-0.4-0.2-0.4-0.4v-3.5
	c0,0,0-0.1-0.1-0.2c-0.1-0.1-0.4-0.3-1.1-0.3c-0.8,0-1.1,0.2-1.2,0.3c0,0-0.1,0.1-0.1,0.1c0,0,0,0,0,0v3.5
	C8.7,16.6,8.5,16.8,8.3,16.8z M8.4,13.4l-0.1,3.2l-3.8-0.2l-0.3-4l0.1-2.6L3.2,9.5l6.8-6.1l6.7,5.8l-0.7,0.6l-0.3,5.8l-0.3,0.9
	l-3.5,0.1l-0.1-2.3l-0.2-1.6l-0.4-0.4l-0.9-0.1l-1.1,0.1l-0.7,0.1L8.4,13.4z"/>
</svg>
